<?xml version="1.0" standalone="no"?><!DOCTYPE svg PUBLIC "-//W3C//DTD SVG 1.1//EN" "http://www.w3.org/Graphics/SVG/1.1/DTD/svg11.dtd"><svg t="1715869908072" class="icon" viewBox="0 0 1024 1024" version="1.1" xmlns="http://www.w3.org/2000/svg" p-id="7737" xmlns:xlink="http://www.w3.org/1999/xlink" width="200" height="200"><path d="M512 512m-500 0a500 500 0 1 0 1000 0 500 500 0 1 0-1000 0Z" fill="#FFEB0D" p-id="7738" data-spm-anchor-id="a313x.search_index.0.i1.6dae3a81AI5E0T"></path><path d="M732 547H287c-20 0-35-15-35-35s15-35 35-35h445c20 0 35 15 35 35s-15 35-35 35z" fill="#282826" p-id="7739"></path><path d="M547 287v445c0 20-15 35-35 35s-35-15-35-35V287c0-20 15-35 35-35 15 0 35 20 35 35z" fill="#282826" p-id="7740"></path></svg>